<svg id="SVGDoc" width="559" height="400" xmlns="http://www.w3.org/2000/svg" version="1.1"><path d="M259.518.024l10.196 2.732L10.042 322.46l-10.196-2.733zm16.993 4.554l10.196 2.733L27.035 327.014l-10.196-2.733zm16.993 4.555l10.195 2.732L44.027 331.57l-10.195-2.733zm16.992 4.554l10.196 2.733L61.02 336.123l-10.196-2.733zm16.993 4.555l10.195 2.733L78.012 340.678l-10.195-2.733zm16.992 4.554l10.196 2.733L95.005 345.232 84.809 342.5zm16.993 4.555l10.195 2.733-259.671 319.703-10.196-2.733zm16.993 4.554l10.195 2.733-259.671 319.704-10.196-2.733zm16.992 4.555l10.196 2.733-259.672 319.703-10.196-2.733zm16.992 4.554l10.196 2.733-259.672 319.704-10.195-2.733zm16.993 4.555l10.196 2.733-259.672 319.703-10.195-2.733zm16.993 4.555l10.196 2.732L196.96 372.56l-10.196-2.733zm16.993 4.554l10.196 2.733-259.673 319.703-10.195-2.732zm16.992 4.555l10.196 2.732L230.946 381.67l-10.196-2.733zm16.993 4.554l10.196 2.733-259.673 319.703-10.195-2.732zm16.993 4.555l10.195 2.733-259.672 319.703-10.196-2.733zm16.992 4.554l10.195 2.733-259.671 319.704-10.196-2.733zm16.993 4.555l10.195 2.733-259.672 319.703-10.195-2.733z" fill="#f4f4f4"/></svg>