<svg width="24" height="24" viewBox="0 0 24 24" fill="none" xmlns="http://www.w3.org/2000/svg">
<path d="M13.5919 12.0002L20.6702 4.92168C21.1099 4.48227 21.1099 3.76931 20.6702 3.3299C20.2304 2.89012 19.5182 2.89012 19.0785 3.3299L12.0002 10.4085L4.92154 3.3299C4.48177 2.89012 3.76959 2.89012 3.32982 3.3299C2.89006 3.76931 2.89006 4.48227 3.32982 4.92168L10.4085 12.0002L3.32982 19.0788C2.89006 19.5182 2.89006 20.2312 3.32982 20.6706C3.54971 20.8901 3.83788 21.0001 4.12568 21.0001C4.41348 21.0001 4.70165 20.8901 4.92154 20.6702L12.0002 13.5917L19.0785 20.6702C19.2983 20.8901 19.5865 21.0001 19.8743 21.0001C20.1621 21.0001 20.4503 20.8901 20.6702 20.6702C21.1099 20.2308 21.1099 19.5179 20.6702 19.0784L13.5919 12.0002Z" fill="#737C81"/>
</svg>
