<svg xmlns="http://www.w3.org/2000/svg" xmlns:xlink="http://www.w3.org/1999/xlink"><symbol id="icon-arrow-next"><rect x="60" y="60" width="60" height="60" rx="30" transform="rotate(-180 60 60)" fill="#fff"/><path d="M22.904 18.297a3.115 3.115 0 010-4.388 3.076 3.076 0 014.366 0l13.826 13.897a3.115 3.115 0 010 4.389L27.27 46.09a3.076 3.076 0 01-4.366 0 3.115 3.115 0 010-4.388L34.547 30 22.904 18.297z" fill="#FFB200"/></symbol><symbol id="icon-arrow-prev"><rect width="60" height="60" rx="30" fill="#fff"/><path d="M37.096 41.703a3.115 3.115 0 010 4.388 3.076 3.076 0 01-4.366 0L18.904 32.194a3.115 3.115 0 010-4.389L32.73 13.91a3.076 3.076 0 014.366 0 3.115 3.115 0 010 4.388L25.453 30l11.643 11.703z" fill="#FFB200"/></symbol><symbol id="icon-popup-close" viewBox="0 0 24 24">
<path d="M13.5919 12.0002L20.6702 4.92168C21.1099 4.48227 21.1099 3.76931 20.6702 3.3299C20.2304 2.89012 19.5182 2.89012 19.0785 3.3299L12.0002 10.4085L4.92154 3.3299C4.48177 2.89012 3.76959 2.89012 3.32982 3.3299C2.89006 3.76931 2.89006 4.48227 3.32982 4.92168L10.4085 12.0002L3.32982 19.0788C2.89006 19.5182 2.89006 20.2312 3.32982 20.6706C3.54971 20.8901 3.83788 21.0001 4.12568 21.0001C4.41348 21.0001 4.70165 20.8901 4.92154 20.6702L12.0002 13.5917L19.0785 20.6702C19.2983 20.8901 19.5865 21.0001 19.8743 21.0001C20.1621 21.0001 20.4503 20.8901 20.6702 20.6702C21.1099 20.2308 21.1099 19.5179 20.6702 19.0784L13.5919 12.0002Z" fill="#737C81"/>
</symbol><symbol id="icon-reviews-star"><path d="M14.248 0l4.496 8.1 9.146 1.745-6.367 6.75 1.156 9.177-8.431-3.927-8.432 3.927 1.155-9.177-6.366-6.75L9.751 8.1 14.248 0" fill="currentColor"/></symbol></svg>